ffmpeg started on 2026-04-01 at 12:52:28
Report written to "D:\Convert\FFMetrics\reports\psnr_report-6.txt"
Log level: 32
Command line:
ffmpeg -hide_banner -nostdin -r 24000/1001 -i "F:\\Convert\\files\\[DC] Make Heroine ga Oosugiru - 07_Telegram_HEVC(294).mkv" -r 24000/1001 -i "F:\\Convert\\files\\[DC] Make Heroine ga Oosugiru - 07_Telegram.mp4" -lavfi "[0:v]settb=AVTB,setpts=PTS-STARTPTS,format=pix_fmts=yuv420p10le,fps=24000/1001,scale=1920:1080:flags=lanczos:param0=3:out_range=limited:out_color_matrix=bt709:out_chroma_loc=left,setsar=1/1,setdar=(1920/1080)*(1/1),colorspace=format=yuv420p10:range=tv:primaries=bt709:trc=bt709:space=bt709:fast=0[main];[1:v]settb=AVTB,setpts=PTS-STARTPTS,format=pix_fmts=yuv420p,fps=24000/1001,scale=1920:1080:flags=lanczos:param0=3:out_range=limited:out_color_matrix=bt709:out_chroma_loc=left,setsar=1/1,setdar=(1920/1080)*(1/1),colorspace=format=yuv420p:range=tv:primaries=bt709:trc=bt709:space=bt709:fast=0[ref];[main][ref]psnr=eof_action=endall:stats_file='D\\:/Convert/FFMetrics/logs/psnr_logfile-6.txt'" -f null -
Input #0, matroska,webm, from 'F:\Convert\files\[DC] Make Heroine ga Oosugiru - 07_Telegram_HEVC(294).mkv':
  Metadata:
    COMPATIBLE_BRANDS: isomiso2avc1mp41
    MAJOR_BRAND     : isom
    MINOR_VERSION   : 512
    ENCODER         : Lavf61.7.100
  Duration: 00:24:06.79, start: -0.021000, bitrate: 952 kb/s
  Stream #0:0: Video: hevc (Main 10), yuv420p10le(tv, bt709, progressive), 1920x1080 [SAR 1:1 DAR 16:9], 23.98 fps, 23.98 tbr, 1k tbn (default)
      Metadata:
        HANDLER_NAME    : VideoHandler
        VENDOR_ID       : [0][0][0][0]
        ENCODER         : Lavc61.19.100 libx265
        BPS             : 755825
        DURATION        : 00:24:06.569708333
        NUMBER_OF_FRAMES: 34683
        NUMBER_OF_BYTES : 136669170
        _STATISTICS_WRITING_APP: mkvpropedit v94.0 ('Initiate') 64-bit
        _STATISTICS_WRITING_DATE_UTC: 2026-03-31 07:08:55
        _STATISTICS_TAGS: BPS DURATION NUMBER_OF_FRAMES NUMBER_OF_BYTES
  Stream #0:1: Audio: aac (LC), 48000 Hz, stereo, fltp (default)
      Metadata:
        HANDLER_NAME    : SoundHandler
        VENDOR_ID       : [0][0][0][0]
        ENCODER         : Lavc61.19.100 aac
        BPS             : 193194
        DURATION        : 00:24:06.784000000
        NUMBER_OF_FRAMES: 67819
        NUMBER_OF_BYTES : 34938755
        _STATISTICS_WRITING_APP: mkvpropedit v94.0 ('Initiate') 64-bit
        _STATISTICS_WRITING_DATE_UTC: 2026-03-31 07:08:55
        _STATISTICS_TAGS: BPS DURATION NUMBER_OF_FRAMES NUMBER_OF_BYTES
Input #1, mov,mp4,m4a,3gp,3g2,mj2, from 'F:\Convert\files\[DC] Make Heroine ga Oosugiru - 07_Telegram.mp4':
  Metadata:
    major_brand     : isom
    minor_version   : 512
    compatible_brands: isomiso2avc1mp41
    encoder         : Lavf60.16.100
  Duration: 00:24:06.74, start: 0.000000, bitrate: 3764 kb/s
  Stream #1:0[0x1](und): Video: h264 (High) (avc1 / 0x31637661), yuv420p(tv, bt709, progressive), 1920x1080 [SAR 1:1 DAR 16:9], 3616 kb/s, 23.98 fps, 23.98 tbr, 24k tbn (default)
      Metadata:
        handler_name    : VideoHandler
        vendor_id       : [0][0][0][0]
        encoder         : Lavc60.31.102 h264_qsv
  Stream #1:1[0x2](und): Audio: aac (HE-AACv2) (mp4a / 0x6134706D), 48000 Hz, stereo, fltp, 144 kb/s (default)
      Metadata:
        handler_name    : SoundHandler
        vendor_id       : [0][0][0][0]
Stream mapping:
  Stream #0:0 (hevc) -> settb:default
  Stream #1:0 (h264) -> settb:default
  psnr:default -> Stream #0:0 (wrapped_avframe)
  Stream #0:1 -> #0:1 (aac (native) -> pcm_s16le (native))
Output #0, null, to 'pipe:':
  Metadata:
    COMPATIBLE_BRANDS: isomiso2avc1mp41
    MAJOR_BRAND     : isom
    MINOR_VERSION   : 512
    encoder         : Lavf61.7.100
  Stream #0:0: Video: wrapped_avframe, yuv420p10le(tv, bt709, progressive), 1920x1080 [SAR 1:1 DAR 16:9], q=2-31, 200 kb/s, 23.98 fps, 23.98 tbn
      Metadata:
        encoder         : Lavc61.19.100 wrapped_avframe
  Stream #0:1: Audio: pcm_s16le, 48000 Hz, stereo, s16, 1536 kb/s (default)
      Metadata:
        HANDLER_NAME    : SoundHandler
        VENDOR_ID       : [0][0][0][0]
        _STATISTICS_TAGS: BPS DURATION NUMBER_OF_FRAMES NUMBER_OF_BYTES
        BPS             : 193194
        DURATION        : 00:24:06.784000000
        NUMBER_OF_FRAMES: 67819
        NUMBER_OF_BYTES : 34938755
        _STATISTICS_WRITING_APP: mkvpropedit v94.0 ('Initiate') 64-bit
        _STATISTICS_WRITING_DATE_UTC: 2026-03-31 07:08:55
        encoder         : Lavc61.19.100 pcm_s16le
frame=  135 fps=0.0 q=-0.0 size=N/A time=00:00:05.63 bitrate=N/A speed=10.8x    frame=  325 fps=315 q=-0.0 size=N/A time=00:00:13.55 bitrate=N/A speed=13.1x    frame=  509 fps=330 q=-0.0 size=N/A time=00:00:21.22 bitrate=N/A speed=13.8x    frame=  705 fps=341 q=-0.0 size=N/A time=00:00:29.40 bitrate=N/A speed=14.2x    frame=  888 fps=345 q=-0.0 size=N/A time=00:00:37.03 bitrate=N/A speed=14.4x    frame= 1024 fps=332 q=-0.0 size=N/A time=00:00:42.70 bitrate=N/A speed=13.8x    frame= 1186 fps=328 q=-0.0 size=N/A time=00:00:49.46 bitrate=N/A speed=13.7x    frame= 1349 fps=327 q=-0.0 size=N/A time=00:00:56.26 bitrate=N/A speed=13.6x    frame= 1503 fps=324 q=-0.0 size=N/A time=00:01:02.68 bitrate=N/A speed=13.5x    frame= 1648 fps=319 q=-0.0 size=N/A time=00:01:08.73 bitrate=N/A speed=13.3x    frame= 1815 fps=320 q=-0.0 size=N/A time=00:01:15.70 bitrate=N/A speed=13.3x    frame= 1970 fps=318 q=-0.0 size=N/A time=00:01:22.16 bitrate=N/A speed=13.3x    frame= 2089 fps=312 q=-0.0 size=N/A time=00:01:27.12 bitrate=N/A speed=  13x    frame= 2228 fps=309 q=-0.0 size=N/A time=00:01:32.92 bitrate=N/A speed=12.9x    frame= 2373 fps=307 q=-0.0 size=N/A time=00:01:38.97 bitrate=N/A speed=12.8x    frame= 2502 fps=303 q=-0.0 size=N/A time=00:01:44.35 bitrate=N/A speed=12.6x    frame= 2653 fps=303 q=-0.0 size=N/A time=00:01:50.65 bitrate=N/A speed=12.6x    frame= 2826 fps=305 q=-0.0 size=N/A time=00:01:57.86 bitrate=N/A speed=12.7x    frame= 3001 fps=307 q=-0.0 size=N/A time=00:02:05.16 bitrate=N/A speed=12.8x    frame= 3201 fps=310 q=-0.0 size=N/A time=00:02:13.50 bitrate=N/A speed=12.9x    frame= 3392 fps=313 q=-0.0 size=N/A time=00:02:21.47 bitrate=N/A speed=13.1x    frame= 3596 fps=317 q=-0.0 size=N/A time=00:02:29.98 bitrate=N/A speed=13.2x    frame= 3784 fps=319 q=-0.0 size=N/A time=00:02:37.82 bitrate=N/A speed=13.3x    frame= 3985 fps=322 q=-0.0 size=N/A time=00:02:46.20 bitrate=N/A speed=13.4x    frame= 4180 fps=324 q=-0.0 size=N/A time=00:02:54.34 bitrate=N/A speed=13.5x    frame= 4376 fps=327 q=-0.0 size=N/A time=00:03:02.51 bitrate=N/A speed=13.6x    frame= 4568 fps=328 q=-0.0 size=N/A time=00:03:10.52 bitrate=N/A speed=13.7x    frame= 4765 fps=330 q=-0.0 size=N/A time=00:03:18.74 bitrate=N/A speed=13.8x    frame= 4960 fps=332 q=-0.0 size=N/A time=00:03:26.87 bitrate=N/A speed=13.8x    frame= 5163 fps=334 q=-0.0 size=N/A time=00:03:35.34 bitrate=N/A speed=13.9x    frame= 5355 fps=335 q=-0.0 size=N/A time=00:03:43.34 bitrate=N/A speed=  14x    frame= 5544 fps=336 q=-0.0 size=N/A time=00:03:51.23 bitrate=N/A speed=  14x    frame= 5738 fps=337 q=-0.0 size=N/A time=00:03:59.32 bitrate=N/A speed=14.1x    frame= 5925 fps=338 q=-0.0 size=N/A time=00:04:07.12 bitrate=N/A speed=14.1x    frame= 6107 fps=339 q=-0.0 size=N/A time=00:04:14.71 bitrate=N/A speed=14.1x    frame= 6291 fps=339 q=-0.0 size=N/A time=00:04:22.38 bitrate=N/A speed=14.1x    frame= 6481 fps=340 q=-0.0 size=N/A time=00:04:30.31 bitrate=N/A speed=14.2x    frame= 6677 fps=341 q=-0.0 size=N/A time=00:04:38.48 bitrate=N/A speed=14.2x    frame= 6858 fps=341 q=-0.0 size=N/A time=00:04:46.03 bitrate=N/A speed=14.2x    frame= 7050 fps=342 q=-0.0 size=N/A time=00:04:54.04 bitrate=N/A speed=14.3x    frame= 7230 fps=342 q=-0.0 size=N/A time=00:05:01.55 bitrate=N/A speed=14.3x    frame= 7417 fps=343 q=-0.0 size=N/A time=00:05:09.35 bitrate=N/A speed=14.3x    frame= 7602 fps=343 q=-0.0 size=N/A time=00:05:17.06 bitrate=N/A speed=14.3x    frame= 7783 fps=343 q=-0.0 size=N/A time=00:05:24.61 bitrate=N/A speed=14.3x    frame= 7957 fps=343 q=-0.0 size=N/A time=00:05:31.87 bitrate=N/A speed=14.3x    frame= 8147 fps=343 q=-0.0 size=N/A time=00:05:39.79 bitrate=N/A speed=14.3x    frame= 8326 fps=344 q=-0.0 size=N/A time=00:05:47.26 bitrate=N/A speed=14.3x    frame= 8515 fps=344 q=-0.0 size=N/A time=00:05:55.14 bitrate=N/A speed=14.4x    frame= 8708 fps=345 q=-0.0 size=N/A time=00:06:03.19 bitrate=N/A speed=14.4x    frame= 8889 fps=345 q=-0.0 size=N/A time=00:06:10.74 bitrate=N/A speed=14.4x    frame= 9073 fps=345 q=-0.0 size=N/A time=00:06:18.41 bitrate=N/A speed=14.4x    frame= 9265 fps=346 q=-0.0 size=N/A time=00:06:26.42 bitrate=N/A speed=14.4x    frame= 9458 fps=346 q=-0.0 size=N/A time=00:06:34.47 bitrate=N/A speed=14.4x    frame= 9640 fps=346 q=-0.0 size=N/A time=00:06:42.06 bitrate=N/A speed=14.4x    frame= 9826 fps=347 q=-0.0 size=N/A time=00:06:49.82 bitrate=N/A speed=14.5x    frame=10011 fps=347 q=-0.0 size=N/A time=00:06:57.54 bitrate=N/A speed=14.5x    frame=10202 fps=347 q=-0.0 size=N/A time=00:07:05.50 bitrate=N/A speed=14.5x    frame=10386 fps=347 q=-0.0 size=N/A time=00:07:13.18 bitrate=N/A speed=14.5x    frame=10574 fps=348 q=-0.0 size=N/A time=00:07:21.02 bitrate=N/A speed=14.5x    frame=10763 fps=348 q=-0.0 size=N/A time=00:07:28.90 bitrate=N/A speed=14.5x    frame=10952 fps=348 q=-0.0 size=N/A time=00:07:36.78 bitrate=N/A speed=14.5x    frame=11136 fps=348 q=-0.0 size=N/A time=00:07:44.46 bitrate=N/A speed=14.5x    frame=11313 fps=348 q=-0.0 size=N/A time=00:07:51.84 bitrate=N/A speed=14.5x    frame=11503 fps=349 q=-0.0 size=N/A time=00:07:59.77 bitrate=N/A speed=14.5x    frame=11693 fps=349 q=-0.0 size=N/A time=00:08:07.69 bitrate=N/A speed=14.6x    frame=11893 fps=349 q=-0.0 size=N/A time=00:08:16.03 bitrate=N/A speed=14.6x    frame=12089 fps=350 q=-0.0 size=N/A time=00:08:24.21 bitrate=N/A speed=14.6x    frame=12282 fps=350 q=-0.0 size=N/A time=00:08:32.26 bitrate=N/A speed=14.6x    frame=12468 fps=350 q=-0.0 size=N/A time=00:08:40.01 bitrate=N/A speed=14.6x    frame=12676 fps=351 q=-0.0 size=N/A time=00:08:48.69 bitrate=N/A speed=14.6x    frame=12863 fps=351 q=-0.0 size=N/A time=00:08:56.49 bitrate=N/A speed=14.7x    frame=13065 fps=352 q=-0.0 size=N/A time=00:09:04.91 bitrate=N/A speed=14.7x    frame=13255 fps=352 q=-0.0 size=N/A time=00:09:12.84 bitrate=N/A speed=14.7x    frame=13439 fps=352 q=-0.0 size=N/A time=00:09:20.51 bitrate=N/A speed=14.7x    frame=13629 fps=352 q=-0.0 size=N/A time=00:09:28.44 bitrate=N/A speed=14.7x    frame=13815 fps=352 q=-0.0 size=N/A time=00:09:36.20 bitrate=N/A speed=14.7x    frame=14000 fps=352 q=-0.0 size=N/A time=00:09:43.91 bitrate=N/A speed=14.7x    frame=14168 fps=352 q=-0.0 size=N/A time=00:09:50.92 bitrate=N/A speed=14.7x    frame=14363 fps=352 q=-0.0 size=N/A time=00:09:59.05 bitrate=N/A speed=14.7x    frame=14552 fps=353 q=-0.0 size=N/A time=00:10:06.93 bitrate=N/A speed=14.7x    frame=14739 fps=353 q=-0.0 size=N/A time=00:10:14.73 bitrate=N/A speed=14.7x    frame=14936 fps=353 q=-0.0 size=N/A time=00:10:22.95 bitrate=N/A speed=14.7x    frame=15108 fps=353 q=-0.0 size=N/A time=00:10:30.12 bitrate=N/A speed=14.7x    frame=15273 fps=353 q=-0.0 size=N/A time=00:10:37.01 bitrate=N/A speed=14.7x    frame=15467 fps=353 q=-0.0 size=N/A time=00:10:45.10 bitrate=N/A speed=14.7x    frame=15659 fps=353 q=-0.0 size=N/A time=00:10:53.11 bitrate=N/A speed=14.7x    frame=15855 fps=353 q=-0.0 size=N/A time=00:11:01.28 bitrate=N/A speed=14.7x    frame=16043 fps=353 q=-0.0 size=N/A time=00:11:09.12 bitrate=N/A speed=14.7x    frame=16228 fps=354 q=-0.0 size=N/A time=00:11:16.84 bitrate=N/A speed=14.7x    frame=16420 fps=354 q=-0.0 size=N/A time=00:11:24.85 bitrate=N/A speed=14.8x    frame=16608 fps=354 q=-0.0 size=N/A time=00:11:32.69 bitrate=N/A speed=14.8x    frame=16802 fps=354 q=-0.0 size=N/A time=00:11:40.78 bitrate=N/A speed=14.8x    frame=16997 fps=354 q=-0.0 size=N/A time=00:11:48.91 bitrate=N/A speed=14.8x    frame=17185 fps=354 q=-0.0 size=N/A time=00:11:56.75 bitrate=N/A speed=14.8x    frame=17371 fps=355 q=-0.0 size=N/A time=00:12:04.51 bitrate=N/A speed=14.8x    frame=17560 fps=355 q=-0.0 size=N/A time=00:12:12.39 bitrate=N/A speed=14.8x    frame=17742 fps=355 q=-0.0 size=N/A time=00:12:19.98 bitrate=N/A speed=14.8x    frame=17930 fps=355 q=-0.0 size=N/A time=00:12:27.83 bitrate=N/A speed=14.8x    frame=18126 fps=355 q=-0.0 size=N/A time=00:12:36.00 bitrate=N/A speed=14.8x    frame=18309 fps=355 q=-0.0 size=N/A time=00:12:43.63 bitrate=N/A speed=14.8x    frame=18503 fps=355 q=-0.0 size=N/A time=00:12:51.72 bitrate=N/A speed=14.8x    frame=18692 fps=355 q=-0.0 size=N/A time=00:12:59.61 bitrate=N/A speed=14.8x    frame=18892 fps=356 q=-0.0 size=N/A time=00:13:07.95 bitrate=N/A speed=14.8x    frame=19091 fps=356 q=-0.0 size=N/A time=00:13:16.25 bitrate=N/A speed=14.8x    frame=19275 fps=356 q=-0.0 size=N/A time=00:13:23.92 bitrate=N/A speed=14.8x    frame=19465 fps=356 q=-0.0 size=N/A time=00:13:31.85 bitrate=N/A speed=14.9x    frame=19664 fps=356 q=-0.0 size=N/A time=00:13:40.15 bitrate=N/A speed=14.9x    frame=19851 fps=356 q=-0.0 size=N/A time=00:13:47.95 bitrate=N/A speed=14.9x    frame=20046 fps=357 q=-0.0 size=N/A time=00:13:56.08 bitrate=N/A speed=14.9x    frame=20247 fps=357 q=-0.0 size=N/A time=00:14:04.46 bitrate=N/A speed=14.9x    frame=20430 fps=357 q=-0.0 size=N/A time=00:14:12.10 bitrate=N/A speed=14.9x    frame=20612 fps=357 q=-0.0 size=N/A time=00:14:19.69 bitrate=N/A speed=14.9x    frame=20804 fps=357 q=-0.0 size=N/A time=00:14:27.70 bitrate=N/A speed=14.9x    frame=21005 fps=357 q=-0.0 size=N/A time=00:14:36.08 bitrate=N/A speed=14.9x    frame=21202 fps=357 q=-0.0 size=N/A time=00:14:44.30 bitrate=N/A speed=14.9x    frame=21395 fps=358 q=-0.0 size=N/A time=00:14:52.34 bitrate=N/A speed=14.9x    frame=21592 fps=358 q=-0.0 size=N/A time=00:15:00.56 bitrate=N/A speed=14.9x    frame=21791 fps=358 q=-0.0 size=N/A time=00:15:08.86 bitrate=N/A speed=14.9x    frame=21988 fps=358 q=-0.0 size=N/A time=00:15:17.08 bitrate=N/A speed=14.9x    frame=22178 fps=358 q=-0.0 size=N/A time=00:15:25.00 bitrate=N/A speed=14.9x    frame=22380 fps=359 q=-0.0 size=N/A time=00:15:33.43 bitrate=N/A speed=  15x    frame=22579 fps=359 q=-0.0 size=N/A time=00:15:41.73 bitrate=N/A speed=  15x    frame=22774 fps=359 q=-0.0 size=N/A time=00:15:49.86 bitrate=N/A speed=  15x    frame=22959 fps=359 q=-0.0 size=N/A time=00:15:57.58 bitrate=N/A speed=  15x    frame=23160 fps=359 q=-0.0 size=N/A time=00:16:05.96 bitrate=N/A speed=  15x    frame=23348 fps=359 q=-0.0 size=N/A time=00:16:13.80 bitrate=N/A speed=  15x    frame=23546 fps=359 q=-0.0 size=N/A time=00:16:22.06 bitrate=N/A speed=  15x    frame=23743 fps=360 q=-0.0 size=N/A time=00:16:30.28 bitrate=N/A speed=  15x    frame=23927 fps=360 q=-0.0 size=N/A time=00:16:37.95 bitrate=N/A speed=  15x    frame=24128 fps=360 q=-0.0 size=N/A time=00:16:46.33 bitrate=N/A speed=  15x    frame=24322 fps=360 q=-0.0 size=N/A time=00:16:54.43 bitrate=N/A speed=  15x    frame=24515 fps=360 q=-0.0 size=N/A time=00:17:02.47 bitrate=N/A speed=  15x    frame=24720 fps=360 q=-0.0 size=N/A time=00:17:11.03 bitrate=N/A speed=  15x    frame=24924 fps=361 q=-0.0 size=N/A time=00:17:19.53 bitrate=N/A speed=  15x    frame=25112 fps=361 q=-0.0 size=N/A time=00:17:27.37 bitrate=N/A speed=  15x    frame=25305 fps=361 q=-0.0 size=N/A time=00:17:35.42 bitrate=N/A speed=  15x    frame=25495 fps=361 q=-0.0 size=N/A time=00:17:43.35 bitrate=N/A speed=  15x    frame=25698 fps=361 q=-0.0 size=N/A time=00:17:51.82 bitrate=N/A speed=15.1x    frame=25888 fps=361 q=-0.0 size=N/A time=00:17:59.74 bitrate=N/A speed=15.1x    frame=26082 fps=361 q=-0.0 size=N/A time=00:18:07.83 bitrate=N/A speed=15.1x    frame=26278 fps=361 q=-0.0 size=N/A time=00:18:16.01 bitrate=N/A speed=15.1x    frame=26473 fps=361 q=-0.0 size=N/A time=00:18:24.14 bitrate=N/A speed=15.1x    frame=26678 fps=362 q=-0.0 size=N/A time=00:18:32.69 bitrate=N/A speed=15.1x    frame=26869 fps=362 q=-0.0 size=N/A time=00:18:40.66 bitrate=N/A speed=15.1x    frame=27046 fps=362 q=-0.0 size=N/A time=00:18:48.04 bitrate=N/A speed=15.1x    frame=27234 fps=362 q=-0.0 size=N/A time=00:18:55.88 bitrate=N/A speed=15.1x    frame=27429 fps=362 q=-0.0 size=N/A time=00:19:04.01 bitrate=N/A speed=15.1x    frame=27614 fps=362 q=-0.0 size=N/A time=00:19:11.73 bitrate=N/A speed=15.1x    frame=27810 fps=362 q=-0.0 size=N/A time=00:19:19.90 bitrate=N/A speed=15.1x    frame=28001 fps=362 q=-0.0 size=N/A time=00:19:27.87 bitrate=N/A speed=15.1x    frame=28190 fps=362 q=-0.0 size=N/A time=00:19:35.75 bitrate=N/A speed=15.1x    frame=28375 fps=362 q=-0.0 size=N/A time=00:19:43.47 bitrate=N/A speed=15.1x    frame=28569 fps=362 q=-0.0 size=N/A time=00:19:51.56 bitrate=N/A speed=15.1x    frame=28746 fps=362 q=-0.0 size=N/A time=00:19:58.94 bitrate=N/A speed=15.1x    frame=28914 fps=362 q=-0.0 size=N/A time=00:20:05.95 bitrate=N/A speed=15.1x    frame=29081 fps=361 q=-0.0 size=N/A time=00:20:12.92 bitrate=N/A speed=15.1x    frame=29268 fps=361 q=-0.0 size=N/A time=00:20:20.71 bitrate=N/A speed=15.1x    frame=29440 fps=361 q=-0.0 size=N/A time=00:20:27.89 bitrate=N/A speed=15.1x    frame=29609 fps=361 q=-0.0 size=N/A time=00:20:34.94 bitrate=N/A speed=15.1x    frame=29787 fps=361 q=-0.0 size=N/A time=00:20:42.36 bitrate=N/A speed=15.1x    frame=29958 fps=361 q=-0.0 size=N/A time=00:20:49.49 bitrate=N/A speed=  15x    frame=30123 fps=361 q=-0.0 size=N/A time=00:20:56.38 bitrate=N/A speed=  15x    frame=30302 fps=360 q=-0.0 size=N/A time=00:21:03.84 bitrate=N/A speed=  15x    frame=30494 fps=360 q=-0.0 size=N/A time=00:21:11.85 bitrate=N/A speed=  15x    frame=30690 fps=361 q=-0.0 size=N/A time=00:21:20.02 bitrate=N/A speed=  15x    frame=30874 fps=361 q=-0.0 size=N/A time=00:21:27.70 bitrate=N/A speed=  15x    frame=31066 fps=361 q=-0.0 size=N/A time=00:21:35.71 bitrate=N/A speed=  15x    frame=31253 fps=361 q=-0.0 size=N/A time=00:21:43.51 bitrate=N/A speed=  15x    frame=31438 fps=361 q=-0.0 size=N/A time=00:21:51.22 bitrate=N/A speed=  15x    frame=31621 fps=361 q=-0.0 size=N/A time=00:21:58.85 bitrate=N/A speed=  15x    frame=31800 fps=361 q=-0.0 size=N/A time=00:22:06.32 bitrate=N/A speed=  15x    frame=31971 fps=360 q=-0.0 size=N/A time=00:22:13.45 bitrate=N/A speed=  15x    frame=32161 fps=360 q=-0.0 size=N/A time=00:22:21.38 bitrate=N/A speed=  15x    frame=32352 fps=360 q=-0.0 size=N/A time=00:22:29.34 bitrate=N/A speed=  15x    frame=32544 fps=361 q=-0.0 size=N/A time=00:22:37.35 bitrate=N/A speed=  15x    frame=32698 fps=360 q=-0.0 size=N/A time=00:22:43.77 bitrate=N/A speed=  15x    frame=32858 fps=360 q=-0.0 size=N/A time=00:22:50.45 bitrate=N/A speed=  15x    frame=33037 fps=360 q=-0.0 size=N/A time=00:22:57.91 bitrate=N/A speed=  15x    frame=33220 fps=360 q=-0.0 size=N/A time=00:23:05.55 bitrate=N/A speed=  15x    frame=33384 fps=360 q=-0.0 size=N/A time=00:23:12.39 bitrate=N/A speed=  15x    frame=33540 fps=359 q=-0.0 size=N/A time=00:23:18.89 bitrate=N/A speed=  15x    frame=33694 fps=359 q=-0.0 size=N/A time=00:23:25.32 bitrate=N/A speed=  15x    frame=33822 fps=358 q=-0.0 size=N/A time=00:23:30.65 bitrate=N/A speed=14.9x    frame=33957 fps=358 q=-0.0 size=N/A time=00:23:36.28 bitrate=N/A speed=14.9x    frame=34128 fps=358 q=-0.0 size=N/A time=00:23:43.42 bitrate=N/A speed=14.9x    frame=34290 fps=357 q=-0.0 size=N/A time=00:23:50.17 bitrate=N/A speed=14.9x    frame=34416 fps=357 q=-0.0 size=N/A time=00:23:55.43 bitrate=N/A speed=14.9x    frame=34586 fps=357 q=-0.0 size=N/A time=00:24:02.52 bitrate=N/A speed=14.9x    [Parsed_psnr_16 @ 00000187e4512500] PSNR y:48.894153 u:50.321315 v:50.373423 average:49.326665 min:37.943831 max:inf
[out#0/null @ 00000187d7b3dec0] video:14903KiB audio:271276KiB subtitle:0KiB other streams:0KiB global headers:0KiB muxing overhead: unknown
frame=34683 fps=357 q=-0.0 Lsize=N/A time=00:24:06.57 bitrate=N/A speed=14.9x    
